<?xml version="1.0" encoding="UTF-8"?><svg id="Layer_2" xmlns="http://www.w3.org/2000/svg" width="27.19mm" height="9.69mm" viewBox="0 0 77.07 27.46"><defs><style>.cls-1{fill:#5a8c7d;stroke:#5a8c7d;stroke-miterlimit:10;}.cls-2{fill:#fff;stroke-width:0px;}</style></defs><g id="Layer_1-2"><rect class="cls-1" x=".5" y=".5" width="76.07" height="26.46" rx="13.23" ry="13.23"/><path class="cls-2" d="m28.31,10.31h1.04v7.21h3.45v.88h-4.5v-8.08Z"/><path class="cls-2" d="m35.11,10.96c.01.36-.25.65-.67.65-.37,0-.64-.29-.64-.65s.28-.66.66-.66.65.29.65.66Zm-1.17,7.44v-5.8h1.06v5.8h-1.06Z"/><path class="cls-2" d="m36.74,14.16c0-.6-.01-1.09-.05-1.57h.94l.06.96h.02c.29-.55.96-1.09,1.92-1.09.8,0,2.05.48,2.05,2.47v3.47h-1.06v-3.35c0-.94-.35-1.71-1.34-1.71-.7,0-1.24.49-1.42,1.08-.05.13-.07.31-.07.49v3.49h-1.06v-4.23Z"/><path class="cls-2" d="m44.45,15.25h.02c.14-.2.35-.46.52-.66l1.7-2h1.27l-2.24,2.39,2.55,3.42h-1.28l-2-2.78-.54.6v2.18h-1.04v-8.52h1.04v5.37Z"/></g></svg>