<?xml version="1.0" encoding="UTF-8"?><svg id="Layer_1" xmlns="http://www.w3.org/2000/svg" width="37.56mm" height="17.59mm" viewBox="0 0 106.46 49.85"><defs><style>.cls-1{stroke:#f0eb51;}.cls-1,.cls-2{fill:none;stroke-miterlimit:10;}.cls-2{stroke:#fff142;}.cls-3{fill:#f7d547;}.cls-3,.cls-4{stroke-width:0px;}.cls-4{fill:#44372b;}</style></defs><path class="cls-3" d="m44.21,11.38c-1.56.37-5.07,1.2-7.32,4.07-1.03,1.32-1.4,2.55-3.12,3.93-.91.73-1.88,1.25-3.66,1.9-4.79,1.73-8.95,2-9.62,2.03-1.97.11-4.8.27-8.4-.41-2.75-.51-4.15-1.18-6.51-.68-1.01.21-3.05.65-4.07,2.44-.64,1.13-.86,2.77-.14,4.07.52.92,1.31,1.3,2.58,1.9.53.25,2.19.98,5.69,1.36,2.29.24,2.23,0,4.2.27,2.22.3,2.42.62,4.61.95,1.85.27,3.24.27,4.74.27,2.75,0,4.12,0,5.56-.41,2.66-.75,5.03-2.4,5.29-2.58,1.44-1.02,2.27-1.92,2.85-1.63.52.27.19,1.19.54,2.44.57,2.03,2.44,3.17,3.93,4.07.74.45,1.98,1.11,5.15,1.9,2.14.53,4.74,1.02,8.27,1.36,4.88.46,5.57.05,7.32.95,1.63.84,2.6,2,4.34,4.07,1.59,1.9,2.7,3.75,5.15,5.15.7.4,1.32.65,1.76.41.72-.4.58-1.92.41-3.8-.14-1.47-.25-2.67-.81-4.2-.54-1.46-1.09-2.13-.81-2.44.32-.36,1.35.24,2.71.68,1.38.44,2.59.47,5.02.54,2.02.06,4.21-.01,9.89-.54,5.26-.49,5.37-.62,7.59-.68,2.5-.06,6.23,0,6.23,0,0,0,1.24.27,1.24.27.65-.26.69-2.56-.15-4.47-.26-.57-1.01-2.04-3-3.31-2.05-1.31-3.99-1.48-7.93-1.69-5.25-.28-9.62-.38-9.93-.38-2.04-.04-5.02-.11-8.93-.38-1.19-.08-3.66-.28-6.62-1.31-3.08-1.07-3.64-1.99-3.85-2.46-.5-1.14.17-1.68-.08-4-.09-.82-.24-2.15-1-3.54-1.02-1.87-2.58-2.82-3.54-3.39-1.63-.96-3.09-1.31-4.62-1.62-5.62-1.12-8.44-1.68-10.95-1.09Z"/><path class="cls-4" d="m49.26,11.93c-.07-1.03,1.57-1.08,2.33-3.02.61-1.54.32-3.37.14-4.53-.19-1.2-.47-1.89-.14-2.88.11-.33.41-1.22,1.23-1.51.74-.26,1.58.07,2.06.55.61.61.26,1.08.82,2.33.48,1.08,1.22,1.79,1.78,2.33.12.12.62.59,1.37,1.1.68.46,1.12.76,1.78.96,1.03.31,2.19.27,2.19.27,0,0,1.59-.15,1.78,0,.41.32.33,1.07.27,1.51-.03.27-.18,1.51-1.1,2.19-.79.59-1.29.12-3.16.41-1.66.26-2.86.87-3.29,1.1-1.31.69-1.28,1.04-2.06,1.37-2.31.98-5.94-.69-6.04-2.19Z"/><path class="cls-1" d="m56,24.99c.24.93.73,2.33,1.83,3.67.53.64,1.26,1.19,2.68,2.26,1.69,1.27,2.77,2.08,4.37,2.96,1.93,1.06,2.16.88,3.53,1.83,1.05.74,2.54,1.97,2.54,1.97.42.39.83.79,1.25,1.18"/><path class="cls-2" d="m47.34,21.43c-1.28.16-2.24.55-2.92.91-2.11,1.13-2.6,2.63-4.93,4.47-1.06.84-2.04,1.39-2.74,1.73"/></svg>