<?xml version="1.0" encoding="UTF-8"?><svg id="Layer_1" xmlns="http://www.w3.org/2000/svg" width="28.4mm" height="36.98mm" viewBox="0 0 80.51 104.83"><defs><style>.cls-1{fill:#2a1000;}.cls-1,.cls-2,.cls-3{stroke-width:0px;}.cls-2{fill:#d55734;}.cls-3{fill:#aa4730;}</style></defs><rect class="cls-2" x="24.91" y="5.95" width="31.22" height="92.23" transform="translate(-21.68 30.06) rotate(-32.63)"/><ellipse class="cls-2" cx="15.65" cy="13.23" rx="15.61" ry="12.11" transform="translate(-4.66 10.53) rotate(-32.63)"/><ellipse class="cls-2" cx="65.83" cy="91.6" rx="15.61" ry="12.11" transform="translate(-39 49.95) rotate(-32.63)"/><circle class="cls-1" cx="9.04" cy="31.84" r="9.04"/><circle class="cls-1" cx="46.15" cy="89.82" r="9.04" transform="translate(-41.14 39.06) rotate(-32.63)"/><ellipse class="cls-3" cx="57.31" cy="64.69" rx=".7" ry="1.12" transform="translate(-25.83 41.11) rotate(-32.63)"/><ellipse class="cls-3" cx="50.88" cy="68.81" rx=".7" ry="1.12" transform="translate(-29.07 38.29) rotate(-32.63)"/><ellipse class="cls-3" cx="55.27" cy="75.66" rx=".7" ry="1.12" transform="translate(-32.07 41.74) rotate(-32.63)"/><ellipse class="cls-3" cx="61.7" cy="71.54" rx=".7" ry="1.12" transform="translate(-28.83 44.55) rotate(-32.63)"/><ellipse class="cls-3" cx="21.49" cy="22.9" rx=".7" ry="1.12" transform="translate(-8.96 15.2) rotate(-32.63)"/><ellipse class="cls-3" cx="26.21" cy="30.26" rx=".7" ry="1.12" transform="translate(-12.18 18.91) rotate(-32.63)"/><ellipse class="cls-3" cx="32.08" cy="26.5" rx=".7" ry="1.12" transform="translate(-9.23 21.48) rotate(-32.63)"/><ellipse class="cls-3" cx="27.21" cy="18.89" rx=".7" ry="1.12" transform="translate(-5.89 17.65) rotate(-32.63)"/></svg>