<?xml version="1.0" encoding="UTF-8"?><svg id="Layer_1" xmlns="http://www.w3.org/2000/svg" width="112.82mm" height="94.63mm" viewBox="0 0 319.82 268.23"><defs><style>.cls-1,.cls-2,.cls-3,.cls-4,.cls-5{fill:none;}.cls-1,.cls-6,.cls-7,.cls-8,.cls-9,.cls-10,.cls-11,.cls-12,.cls-13,.cls-14,.cls-15,.cls-16,.cls-17{stroke-width:0px;}.cls-18,.cls-2,.cls-3,.cls-4,.cls-5{stroke-miterlimit:10;}.cls-18,.cls-5{stroke:#280a00;}.cls-18,.cls-7{fill:#280a00;}.cls-2{stroke:#936b4e;}.cls-3{stroke:#f1ec61;}.cls-4{stroke:#fff257;}.cls-6{fill:#f6df56;}.cls-8{fill:#27368d;}.cls-9{fill:#a42d2e;}.cls-10{fill:#393a35;}.cls-11{fill:#443428;}.cls-12{fill:#c5405e;}.cls-13{fill:#e2613d;}.cls-14{fill:#b38f6c;}.cls-15{fill:#b54e35;}.cls-16{fill:#fff;}.cls-17{fill:#fcd758;}</style></defs><path class="cls-14" d="m141,176.33c.01-.21.15-.53.14-.85-.01-.32-.09-.63-.2-1.02-.49-1.67-.54-2.79-.9-4.77-.15-.79-.4-2.83-.53-4.05-.13-1.22-.4-3.56-.46-4.69-.06-1.13-.04-1.41-.04-2.37-.28.05-.89.15-1.12.22-.61.17-1.97.75-2.28.88-1.74.74-2.12.96-3.97,1.67-1.34.51-4,1.9-5.4,2.83-1.71,1.14-4.22,3.46-5.22,4.69-2.06,2.51-3.07,6.88-3.82,9.01-.87,2.47-3.34,5.38-1.93,7.42,1.42,2.03,4.38,1.12,7.07,1.79,1.09.27,5.33,1.2,4.08,1,.76.27,1.91.59,2.37-.02,1.69-2.23.45-5.39,1.49-7.91.45-1.08,1.48-1.28,2.67-1.57,1.53-.37,3.21.4,5.06.53.15.01,2.26-.29,2.76-.44.03-.01.31,0,.39-.18.24-.53-.18-1.49-.14-2.19Z"/><path class="cls-18" d="m128.55,187.32c-.06.36-.04.44.13,2.89.49,7.06.15,3.72.23,4.53.07.75.13,1.18-.08,1.74-.44,1.16-1.59,1.65-1.74,1.71-.6.24-1.19.27-2.79-.02-1.64-.3-2.79-.66-4.1-1.04-1.9-.56-2.85-.84-3.84-1.09-2.12-.53-2.42-.47-4.35-1-1.64-.45-1.48-.51-2.87-.87-2.27-.59-2.54-.39-4.07-.92-1.78-.62-2.64-1.31-3.01-1.64-.67-.6-1.29-1.14-1.35-1.94-.07-1.01.79-1.8,1.71-2.63.84-.77,1.84-1.67,3.3-1.86.84-.11,1.8.19,3.72.78,1.76.54,2.39.92,3.44.7.26-.05.99-.21,1.65-.76.67-.57.61-.99,1.1-1.26.66-.37,1.35.1,2.83.61.53.18,1.65.42,3.87.89,2.7.57,3.1.51,3.39.44,2.11-.5,2.34-.62,2.34-.62.17-.09.41-.24.57-.15.26.16.05.88-.05,1.51Z"/><path class="cls-14" d="m182.17,50.18c-.06.69-.21,1.16-.26,1.37-.31,1.19-1.89,9.67-1.25,19.39.41,6.25.65,9.84,2.59,14.44.72,1.7,3.44,7.74,9.79,12.92,4.23,3.45,8.17,4.97,11.24,6.12,7.9,2.97,14.75,3.15,18.07,3.06,5.11-.13,13.32-.33,18.46-4.85,2.51-2.21,5.01-5.23,5.01-5.23,2.47-2.99,1.85-2.98,3.57-4.7,1.24-1.24,2.38-2.06,2.39-3.37.01-1.05-.72-1.24-.82-2.09-.29-2.32,4.9-3.37,8.58-8.04.8-1.02,2.46-3.19,2.79-6.34.12-1.13.41-3.91-1.44-6.31-.25-.33-2.42-3.07-5.17-2.81-2.81.26-3.45,3.4-5.25,3.14-1.01-.15-1.58-1.25-4.46-8.32-1.2-2.95-1.8-4.43-1.82-4.65-.51-5.29,4.66-8.4,3.16-11.64-.05-.11-.6-1.24-1.78-1.73-2.88-1.18-5.48,3.13-10.41,5.28-5.11,2.23-10.22,1.06-16.93-.47-3.32-.76-7.09-1.62-11.41-4.13-4.57-2.65-9.37-4.89-13.97-7.49-.35-.2-1.59-.9-2.07-.48-.51.45.31,1.78.71,3.81.21,1.09.7,3.58-.36,5.89-.84,1.84-2.74,3.73-5.06,4.2-1.87.38-3.45-.28-3.91.54-.28.49.14.97,0,2.48Z"/><path class="cls-6" d="m185.22,8.94c2.61-4.21,3.37-1.81,5.77-3.01s2.63.27,4.69.07c1.54-.14,3.33.66,4.78.84,1.45.18,3.41.73,4.54.81,2.78.19,4.66.01,7.19-.56,1.62-.36,3.29-1.12,4.56-2.07,1.01-.76,1.58-1.73,2.72-2.04s1.79.19,2.88.35c2.07.29,3.66-.28,5.79-.58,2.8-.39,5.14-.54,8.31-.27,1.8.15,5.39.52,7.24,1.58,5.05,2.88,8.23,10.51,13.53,12.07,1.73.51,1.41-2.44,2.71-3.18.71-.41,2.41-2.37,3.7-2.01,1.29.36,2.04.78,2.79,1.87.75,1.09,1.05,2.02.88,3.43-.08.7-.94,1.35-1.19,2.15-.25.8-1.73,1.87-.78,2.87,1.66,1.72,4.15.77,6.72,1.46,1.37.36,3.94.79,5.26,2.55,1.32,1.76,2.58,3.9,1.63,6.65-.13.36-1.33,2.15-2.21,2.41-1.27.38-3.95-2.17-4.81-.66-.86,1.51,1.44,2.85,2.25,4.79,1.36,3.27,2.45,6.36,2.85,10.81.45,5-.84,13.46-1.76,18.42-.58,3.14-1.3,6.71-2.27,8.58-2.37,4.53-6.29,7.04-9.61,9.28-4.63,3.13-11.17,8.43-16.52,7.44-.69-.13-.37-.92-.79-1.88-.24-.55-1.71-1.62-1.14-3.42.22-.71,1.24-3.55,3.29-4.73s5.95-2.53,8.72-4.86c.95-.8,3.91-4.42,2.37-7.09-.06-.11-.72-3.59-2.68-3.27-1.95.32-3.44,3.08-6.08,2.9-2.64-.18-4.25-2.9-5.87-5.55-.81-1.33-2.16-5.32-2.47-7.2-.47-2.8,2.98-7.99.13-9.81-2.84-1.82-5.5,2.62-8.97,3.28-4.63.88-9.76,1.24-15.16-.48-7.61-2.43-15.61-6.57-21.98-12-1.07-.91-2.89-4.07-4.48-2.99-.72.48-.39,1.81-.34,2.04.52,2.8,1.96,5.85,1.34,8.56-.92,4.73-5,4.98-9.1,4.27-.04,0-.12.1-.32-.2-8.07-12.34-5.08-30.41,1.86-41.6Z"/><circle class="cls-16" cx="196.01" cy="59.75" r="1.89"/><circle class="cls-16" cx="224.62" cy="70.32" r="1.89"/><path class="cls-14" d="m202.7,101.97c-.18.01-2.61.19-4.02,2.19-.1.14-.38.53-.53.97-.86,2.46,2.32,6.22,5.09,8.2.79.56,4.49,3.08,9.51,2.53,2.18-.24,5.52-.61,6.84-3.24,1.35-2.71-.08-6.55-2.31-7.75-.55-.3-1.25-.41-2.64-.62-2.61-.4-2.8.07-4.58-.25-2.23-.39-2.52-1.22-5.55-1.81-.87-.17-1.3-.25-1.8-.22Z"/><ellipse class="cls-7" cx="225.77" cy="73.77" rx="6.75" ry="5.58" transform="translate(102.5 276.8) rotate(-76.83)"/><ellipse class="cls-18" cx="197.55" cy="63.61" rx="6.43" ry="5.36" transform="translate(90.61 241.47) rotate(-76.83)"/><path class="cls-10" d="m220.69,58.56c.14-.54,1.58-.59,3.6-.67,2.32-.08,6.03-.21,9.14,2.35,1.46,1.2,3.62,3.68,3.02,4.58-1.34,2.04-16.23-4.43-15.77-6.27Z"/><path class="cls-10" d="m193.11,51.24c.56-2.45,5.88-4.12,9.38-2.33,2.52,1.29,3.92,4.29,3.38,4.88-.45.49-1.82-1.12-4.45-1.26-3.54-.18-5.27,2.54-7.05,1.58-.96-.52-1.5-1.87-1.26-2.88Z"/><path class="cls-14" d="m199.24,109.98c-.08-.11-.17-.22-.25-.32"/><path class="cls-16" d="m220.27,108.86c.57-.21,1.63.94,1.92,1.68.29.74-.17,2.29-.44,2.85-.64,1.29-1.88,2.46-2.72,2.95-1.66.97-2.21.96-3.99,1.37-1.11.26-2.78.55-4.12.48-2.12-.12-3.93-.28-6.06-1.13-2.12-.85-3.74-1.89-5.71-3.82-.8-.78-2.47-2.73-3.01-4.42-.27-.85-.91-2.29-.36-3.65.17-.42.81-2.13,1.89-2.21.05,0,.97-.28,1.16.19.19.47-.41,1.48-.67,2.02-.16.33-.56.7-.59,1.3-.03.6.42,1.37.87,2.04.46.67.48.98,1.19,1.96.71.98,2.34,2.38,3.69,3.21,1.35.83,2.99,1.65,4.6,2.03,1.61.39,3.79.23,5.23.1,1.43-.13,3.05-.63,3.86-1.01,1.15-.54,1.36-.91,2-1.47.64-.56.91-1.28,1.09-1.84.18-.55-.02-1.68.03-1.82.19-.5-.43-.61.14-.82Z"/><path class="cls-9" d="m251.14,125.44c.62.45,1.27.7,1.39,1.68.25,2.05-1.07,4.12-1.84,5.92-1.89,4.45-2.85,8.56-6.22,12.2-.36.39-1.18.6-1.97.32-1.2-.41-2.63-1.75-3.39-2.85-.76-1.1-2.28-2.89-3.02-3.53-1.8-1.56-2.95-2.01-4.75-3.31-.25-.18-.6-.94-1.19-.23-.6.72-.9,1.3-1.18,2.48-.65,2.74-.35,3.61-1.22,7.02-1.31,5.11-2.78,9.54-6.15,15.52-1.27,2.25-5.66,9.69-8.03,12.81-2.86,3.75-4.65,9.74-9.67,11.02s-8.11-1.55-12.49-3.7c-7.48-3.66-13.37-6.99-21.61-11.92-.45-.27-9.02-6.41-10.58-8.36-.1-.12-2.52-1.84-1.61-2.77s1.9-1.8,2.84-2.81c3.72-4.01,5.23-8.86,7.3-13.91,1.66-4.02,4.77-9.27,7.38-12.24,2.19-2.49,3.64-4.77,5-6.63.83-1.13,1.53-2.3.97-2.58-5.72-2.91-11.57-1.77-17.62-1.5-1.31.06-2.09-.27-3.08-.83-.99-.56-.78-2.58-.69-3.18.64-4.49,1.77-9.75,2.44-13.67.44-2.57-.1-4.15,1.51-5.53,2.16-1.85,3.4-.14,5.6.54,5.73,1.78,11.61,3.26,17.66,3.68,4.26.3,8.82-.23,12.07,2.72.86.78-1.67.21-1.98,1.22-.41,1.33-1.17,2.91-.9,4.74.27,1.83,3.56,4.9,4.62,5.78,2.69,2.23,6.26,3.96,8.85,4.23,3.7.39,5.68-.33,8.64-1.16,2.55-.72,3.53-3.23,4.67-4.9,1.15-1.67-4.21-5.51-.73-4.68,6.95,1.65,13.24,8.2,19.09,12.43,3.33,2.4,6.64,3.63,9.88,5.98"/><circle class="cls-16" cx="196.09" cy="59.4" r="1.89"/><circle class="cls-16" cx="224.45" cy="69.5" r="1.89"/><path class="cls-2" d="m210.73,68.97c.24,1.75-.24,2.71-.57,3.18-.85,1.21-2.58,1.84-4.04,2.37-1.18.43-1.6.43-1.96.93-.66.93-.24,2.37.21,3.19.67,1.19,1.78,1.67,2.19,1.82,1.42.51,2.72.08,3.43-.15.59-.2,1.05-.44,1.37-.64"/><path class="cls-14" d="m170.35,193.79c-.69.54-.35.77-1.96,5.38-.37,1.05-1.04,2.75-2.39,6.15-1.54,3.88-2.31,5.82-2.73,6.66-.64,1.27-.74,1.31-3.59,6.24-2.12,3.67-2.42,4.27-2.22,5.13.38,1.66,1.98,1.54,4.53,4.36,1.95,2.15,2.01,3.32,3.08,3.42.61.06,1.34-.26,4.27-4.1,1.71-2.24,2.54-3.55,4.1-5.72.89-1.24,1.79-2.42,3.59-4.78,3.45-4.53,4.01-5.07,5.13-7,.57-1,1.07-2,2.05-4.01.97-1.98,1.49-3.18,1.96-4.53.84-2.41,1.25-3.64.68-4.44-.65-.92-2.19-.79-3.33-.77-7.48.15-10.65-3.93-13.15-1.96Z"/><path class="cls-8" d="m163.61,153.45c-2.91.94-3.41.89-9.77,2.47-7.65,1.9-6.62,1.91-8.09,2.07-2.23.24-5.5.32-9.87,1.38-1.03.25-2,.53-2.57,1.38-.61.92-.38,1.96.79,5.82,1.4,4.63,2.13,6.58,2.66,7.99.86,2.24,1.29,3.37,1.58,3.65,1.25,1.22,3.18,1.34,14.11-1.18,4.74-1.09,9.93-.75,14.31-2.86.22-.1.92-.46,1.58-.2.9.36,1.19,1.68,1.48,3.55.51,3.27.77,4.91.69,6.12-.4,6.36-4.61,8.67-3.45,11.05.5,1.02,2.87,1.42,7.6,2.17,8.02,1.27,9,.22,13.12,1.58.55.18,1.26.44,2.17.3,1.72-.28,2.88-1.8,5.03-5.82,3.76-7.02,3.06-7.66,5.53-11.05.84-1.15,1.5-1.87,1.87-3.26.5-1.82.14-3.43-.99-6.71-1.59-4.65-2.39-6.98-3.65-9.08-1.25-2.07-2.82-4.69-5.92-7.01-2.39-1.79-4.61-2.59-5.92-3.06-3.09-1.1-5.55-1.27-8.49-1.48-2.83-.2-5.03-.36-7.89.2-2.22.43-2.32.8-5.92,1.97Z"/><path class="cls-7" d="m165.3,231.18c-.1.49-.41.75-.8,1.15-1.07,1.08-1.9,2.53-3.55,5.45-2.18,3.84-.96,4.58-2.84,7.22-.47.66-3.06,4.13-5.45,3.55-1.58-.38-2.34-2.36-3.08-4.26-.42-1.08-1.2-3.18-.83-5.8.25-1.78,1.27-3.44,3.31-6.75,1.55-2.51,1.37-1.82,3.31-4.85,1.91-2.98,2.42-4.17,3.31-4.14.82.02.96,1.03,2.52,3.09,2.34,3.07,4.37,3.91,4.08,5.35Z"/><line class="cls-5" x1="216.91" y1="95.66" x2="217.21" y2="95.87"/><path class="cls-7" d="m202.54,85.1c-1.73-.13-2.75.07-3.48.31-.48.16-1.04.34-1.63.81-1.26.99-1.57,2.38-1.62,2.65-.09.45-.35,1.74.37,2.79.18.27.68.6,1.67,1.25,1.04.69,1.62,1.06,2.5,1.46.62.28.99.45,1.51.58,1.52.37,1.95-.14,3.4.17,1.1.24,1.86.76,2.01.87.56.39.64.61,1.94,1.86.6.58.91.87,1.13,1.04.73.56,1.39.82,2.66,1.32,1.54.6,2.34.75,2.65.8.99.17,1.52.25,1.96-.07.58-.42.62-1.24.66-1.99.06-1.21-.23-2.21-.51-2.95-.52-1.35-1.19-2.2-2.09-3.34-1.46-1.84-2.83-3.01-3.3-3.39-.47-.39-.88-.69-1.04-.81-1-.73-1.89-1.25-2.36-1.51-2.85-1.54-6.04-1.81-6.44-1.84Z"/><path class="cls-12" d="m199.49,93.56c-.28-1.07.21-2.07,1.32-2.64.48-.24,1.2-.15,2.01-.02,1.13.19,2.94.53,4.08,1.07,1.14.54,2.37,1.45,3.08,2.24.71.79.99,1.08,1.39,1.91.4.82.16,1.82,0,2.67-.02.1.23.52-.18.48-.41-.04-2.6-1.93-2.66-2.24-.02-.1-1.14-.86-1.56-1.23s-1.26-.68-1.96-.76c-.7-.08-1.35,0-2.15-.07-.43-.04-1.17-.09-1.7-.3-.53-.21-1.48-.4-1.66-1.1Z"/><ellipse class="cls-14" cx="142.52" cy="79.36" rx="6.36" ry="8.89" transform="translate(-10.53 22.93) rotate(-8.87)"/><rect class="cls-14" x="143.1" y="69.06" width="4.49" height="4.71" transform="translate(256.91 188.8) rotate(-159.71)"/><path class="cls-1" d="m142.93,67.03c.15,2.86,1.63,5.03,3.31,4.85"/><path class="cls-1" d="m146.89,69.26c.14-.98-.51-1.89-1.45-2.03"/><path class="cls-1" d="m143.46,68.76c.14-.98,1.03-1.67,1.97-1.53"/><path class="cls-1" d="m145.44,67.23c-.14.98-1.03,1.67-1.97,1.53"/><path class="cls-1" d="m146.89,69.26l-3.43-.5"/><ellipse class="cls-14" cx="146.24" cy="69" rx="1.35" ry="2.3" transform="translate(30.77 182.2) rotate(-69.69)"/><polyline class="cls-14" points="160.6 112.11 152.6 113.78 150.91 113.61 148.02 113.32 144.63 111.7 143.24 109.19 141.38 102.38 139.83 97.98 138.27 90.94 138.81 87.15 139.32 86.09 148.01 84.88 150.28 89.34 154.69 98.77 163.49 98.08"/><path class="cls-1" d="m140.79,66.17c.33,2.83,1.95,4.89,3.62,4.61"/><path class="cls-1" d="m136.73,73.66c-.27-.82.15-1.68.94-1.94"/><path class="cls-1" d="m142.43,64.09c.07.99-.63,1.88-1.58,2"/><path class="cls-1" d="m136.37,72.41c-.53-.84-1.61-1.09-2.42-.56"/><path class="cls-1" d="m132.72,78.91c-.67-.42-.89-1.25-.5-1.85"/><path class="cls-1" d="m149.45,75.01c-1.86,1.64-2.57,3.87-1.6,4.97"/><path class="cls-1" d="m142.82,75.57c.23-.83,1.07-1.31,1.86-1.08"/><rect class="cls-14" x="146.53" y="75.93" width="3.87" height="4.07" transform="translate(161.83 245.12) rotate(-122.27)"/><path class="cls-1" d="m148.58,75.15c-1.78,1.73-2.39,3.99-1.36,5.04"/><path class="cls-1" d="m150.66,77.3c.61-.6.65-1.56.07-2.15"/><path class="cls-1" d="m148.58,75.15c.61-.6,1.58-.6,2.15-.01"/><path class="cls-1" d="m150.73,75.14c-.61.6-1.58.6-2.15.01"/><path class="cls-1" d="m150.66,77.3l-2.09-2.14"/><path class="cls-1" d="m151.02,75.9c.61-.6,1.58-.6,2.15-.01"/><ellipse class="cls-14" cx="150.35" cy="76.78" rx="1.17" ry="1.99" transform="translate(-17.77 92.14) rotate(-32.27)"/><polygon class="cls-14" points="137.51 68.53 141.74 66.99 143.11 71.42 138.88 72.95 137.51 68.53"/><path class="cls-1" d="m135.24,71.29c1.69,1.81,3.94,2.47,5.02,1.46"/><path class="cls-1" d="m140.23,67.33c-.48-.84-1.53-1.11-2.35-.61"/><path class="cls-1" d="m137.25,69.17c-.48-.84-.19-1.93.63-2.44"/><path class="cls-1" d="m137.88,66.73c.48.84.19,1.93-.63,2.44"/><path class="cls-1" d="m140.23,67.33l-2.99,1.84"/><path class="cls-1" d="m138.8,66.59c-.48-.84-.19-1.93.63-2.44"/><ellipse class="cls-14" cx="139.57" cy="67.56" rx="2.31" ry="1.33" transform="translate(-15.02 55.47) rotate(-21.36)"/><polygon class="cls-14" points="133.31 80 133.99 76.69 137.63 77.54 136.95 80.85 133.31 80"/><path class="cls-1" d="m133.83,82.64c2.48.02,4.5-1.15,4.51-2.63"/><path class="cls-1" d="m133.6,77.79c-.78-.02-1.41.54-1.4,1.27"/><path class="cls-1" d="m133.83,82.64c-.86,0-1.55-.68-1.54-1.51"/><path class="cls-1" d="m132.29,81.14c.86,0,1.55.68,1.54,1.51"/><path class="cls-1" d="m133.6,77.79l.04,2.63"/><path class="cls-1" d="m132.63,80.39c-.86,0-1.55-.68-1.54-1.51"/><ellipse class="cls-14" cx="133.48" cy="78.31" rx="1.73" ry="1.07" transform="translate(31.57 194.77) rotate(-79.21)"/><polygon class="cls-14" points="133.14 73.11 136.41 69.97 139.61 73.39 136.34 76.54 133.14 73.11"/><path class="cls-1" d="m133.38,76.08c2.04,1.41,4.38,1.56,5.21.35"/><path class="cls-1" d="m135.15,70.9c-.81-.56-1.91-.37-2.46.43"/><path class="cls-1" d="m133.38,76.08c-.71-.49-.9-1.43-.43-2.11"/><path class="cls-1" d="m132.95,73.97c.71.49.9,1.43.43,2.11"/><path class="cls-1" d="m135.15,70.9l-1.98,2.9"/><path class="cls-1" d="m133.49,70.82c-.81-.56-1.02-1.66-.48-2.47"/><ellipse class="cls-14" cx="134.63" cy="71.38" rx="2.33" ry="1.35" transform="translate(-11.59 114.29) rotate(-44.29)"/><path class="cls-14" d="m252.67,129.52c2.49-.2,3.34,3.01,7.4,5.05,1.9.95,3.85,1.08,7.74,1.35,7.19.49,9.99-.74,15.82.67,1.35.33,2.89.8,4.37,2.02,2.05,1.68,3.96,4.75,3.03,6.39-.6,1.07-2.11,1.02-6.06,1.35-2.93.24-5.83.75-8.75,1.01-11.33,1.01-11.02,2.28-15.48,1.68-.12-.02-3.22-.91-9.42-2.69-3.6-1.04-5.42-1.58-6.06-2.69-1.55-2.7,1.09-6.89,2.69-9.42,1.71-2.71,2.89-4.57,4.71-4.71Z"/><ellipse class="cls-14" cx="288.01" cy="138.6" rx="11.24" ry="7.81" transform="translate(-27.16 85.42) rotate(-16.12)"/><polygon class="cls-14" points="302.02 138.38 300.9 143.77 295.03 142.64 296.16 137.24 302.02 138.38"/><path class="cls-1" d="m303.55,136.74c-3.55.72-5.98,2.92-5.43,4.93"/><path class="cls-1" d="m301.54,141.97c1.26-.01,2.27-.97,2.26-2.15"/><path class="cls-1" d="m301.49,137.72c1.26-.01,2.29.92,2.31,2.1"/><path class="cls-1" d="m303.8,139.82c-1.26.01-2.29-.92-2.31-2.1"/><path class="cls-1" d="m301.54,141.97l-.05-4.24"/><ellipse class="cls-14" cx="301.73" cy="141.12" rx="2.82" ry="1.72" transform="translate(99.9 406.12) rotate(-77.77)"/><path class="cls-1" d="m304.2,134c-3.49.94-5.75,3.29-5.07,5.26"/><path class="cls-1" d="m294.01,130.51c.97-.48,2.14-.13,2.62.77"/><path class="cls-1" d="m307.13,135.58c-1.22.27-2.48-.41-2.81-1.53"/><path class="cls-1" d="m295.51,129.84c.95-.8,1.05-2.15.23-3.03"/><path class="cls-1" d="m294.83,146.16c-2.43-1.94-5.36-2.38-6.55-.99"/><path class="cls-1" d="m292.82,138.24c1.08.13,1.85,1.04,1.73,2.05"/><polygon class="cls-14" points="294.49 145.84 290.79 148.97 287.39 145.22 291.09 142.09 294.49 145.84"/><path class="cls-1" d="m294.48,145.12c-2.52-1.82-5.47-2.13-6.59-.68"/><path class="cls-1" d="m292.2,148.06c.87.63,2.08.48,2.71-.33"/><path class="cls-1" d="m294.48,145.12c.87.63,1.07,1.79.44,2.6"/><path class="cls-1" d="m294.92,147.73c-.87-.63-1.07-1.79-.44-2.6"/><path class="cls-1" d="m292.2,148.06l2.27-2.93"/><path class="cls-1" d="m294.02,148.22c.87.63,1.07,1.79.44,2.6"/><ellipse class="cls-14" cx="292.79" cy="147.57" rx="2.48" ry="1.45" transform="translate(-27.43 218.04) rotate(-39.16)"/><polygon class="cls-14" points="300.6 130.48 303.36 135.3 298.09 137.8 295.32 132.98 300.6 130.48"/><path class="cls-1" d="m296.69,128.25c-1.94,2.4-2.31,5.23-.84,6.35"/><path class="cls-1" d="m302.64,133.54c.96-.74,1.09-2.06.29-2.96"/><path class="cls-1" d="m299.75,130.28c.96-.74,2.39-.6,3.18.3"/><path class="cls-1" d="m302.93,130.58c-.96.74-2.39.6-3.18-.3"/><path class="cls-1" d="m302.64,133.54s-1.29-1.46-2.89-3.26"/><path class="cls-1" d="m303.29,131.67c.96-.74,2.39-.6,3.18.3"/><ellipse class="cls-14" cx="302.22" cy="132.78" rx="1.67" ry="2.86" transform="translate(-24.34 180.98) rotate(-32.11)"/><polygon class="cls-14" points="285.39 127.57 289.68 127.77 289.33 132.34 285.04 132.14 285.39 127.57"/><polygon class="cls-14" points="293.99 126.06 298.58 129.41 294.92 133.94 290.33 130.59 293.99 126.06"/><path class="cls-1" d="m290.32,126.92c-1.36,2.74-1.1,5.59.59,6.37"/><path class="cls-1" d="m297.16,128.07c.54-1.09.09-2.38-1.02-2.89"/><path class="cls-1" d="m290.32,126.92c.47-.95,1.62-1.36,2.56-.92"/><path class="cls-1" d="m292.89,126c-.47.95-1.62,1.36-2.56.92"/><path class="cls-1" d="m297.16,128.07l-4.02-1.84"/><path class="cls-1" d="m296.94,126.05c.54-1.09,1.89-1.56,3-1.05"/><ellipse class="cls-14" cx="296.45" cy="127.53" rx="1.67" ry="2.92" transform="translate(22.4 297.95) rotate(-55.15)"/><ellipse class="cls-14" cx="287.39" cy="127.53" rx="1.35" ry="2.3" transform="translate(131.17 400.39) rotate(-84.14)"/><path class="cls-17" d="m227.66,226.05c-1.56.37-5.07,1.2-7.32,4.07-1.03,1.32-1.4,2.55-3.12,3.93-.91.73-1.88,1.25-3.66,1.9-4.79,1.73-8.95,2-9.62,2.03-1.97.11-4.8.27-8.4-.41-2.75-.51-4.15-1.18-6.51-.68-1.01.21-3.05.65-4.07,2.44-.64,1.13-.86,2.77-.14,4.07.52.92,1.31,1.3,2.58,1.9.53.25,2.19.98,5.69,1.36,2.29.24,2.23,0,4.2.27,2.22.3,2.42.62,4.61.95,1.85.27,3.24.27,4.74.27,2.75,0,4.12,0,5.56-.41,2.66-.75,5.03-2.4,5.29-2.58,1.44-1.02,2.27-1.92,2.85-1.63.52.27.19,1.19.54,2.44.57,2.03,2.44,3.17,3.93,4.07.74.45,1.98,1.11,5.15,1.9,2.14.53,4.74,1.02,8.27,1.36,4.88.46,5.57.05,7.32.95,1.63.84,2.6,2,4.34,4.07,1.59,1.9,2.7,3.75,5.15,5.15.7.4,1.32.65,1.76.41.72-.4.58-1.92.41-3.8-.14-1.47-.25-2.67-.81-4.2-.54-1.46-1.09-2.13-.81-2.44.32-.36,1.35.24,2.71.68,1.38.44,2.59.47,5.02.54,2.02.06,4.21-.01,9.89-.54,5.26-.49,5.37-.62,7.59-.68,2.5-.06,6.23,0,6.23,0,0,0,1.24.27,1.24.27.65-.26.69-2.56-.15-4.47-.26-.57-1.01-2.04-3-3.31-2.05-1.31-3.99-1.48-7.93-1.69-5.25-.28-9.62-.38-9.93-.38-2.04-.04-5.02-.11-8.93-.38-1.19-.08-3.66-.28-6.62-1.31-3.08-1.07-3.64-1.99-3.85-2.46-.5-1.14.17-1.68-.08-4-.09-.82-.24-2.15-1-3.54-1.02-1.87-2.58-2.82-3.54-3.39-1.63-.96-3.09-1.31-4.62-1.62-5.62-1.12-8.44-1.68-10.95-1.09Z"/><path class="cls-11" d="m232.71,226.61c-.07-1.03,1.57-1.08,2.33-3.02.61-1.54.32-3.37.14-4.53-.19-1.2-.47-1.89-.14-2.88.11-.33.41-1.22,1.23-1.51.74-.26,1.58.07,2.06.55.61.61.26,1.08.82,2.33.48,1.08,1.22,1.79,1.78,2.33.12.12.62.59,1.37,1.1.68.46,1.12.76,1.78.96,1.03.31,2.19.27,2.19.27,0,0,1.59-.15,1.78,0,.41.32.33,1.07.27,1.51-.03.27-.18,1.51-1.1,2.19-.79.59-1.29.12-3.16.41-1.66.26-2.86.87-3.29,1.1-1.31.69-1.28,1.04-2.06,1.37-2.31.98-5.94-.69-6.04-2.19Z"/><path class="cls-3" d="m239.45,239.67c.24.93.73,2.33,1.83,3.67.53.64,1.26,1.19,2.68,2.26,1.69,1.27,2.77,2.08,4.37,2.96,1.93,1.06,2.16.88,3.53,1.83,1.05.74,2.54,1.97,2.54,1.97.42.39.83.79,1.25,1.18"/><path class="cls-4" d="m230.79,236.1c-1.28.16-2.24.55-2.92.91-2.11,1.13-2.6,2.63-4.93,4.47-1.06.84-2.04,1.39-2.74,1.73"/><path class="cls-5" d="m16.15,30.97c-1.52-.17-4-.16-6.66,1.3-1.51.82-3.44,1.88-4.61,4.52-1.33,2.97-.84,6.03-.66,6.98"/><path class="cls-5" d="m15.01,34.99c-.88-.09-2.3-.08-3.83.65-.87.41-1.98.94-2.66,2.26-.76,1.49-.48,3.02-.38,3.49"/><path class="cls-5" d="m103.3,138.81c1.53.08,4-.1,6.56-1.71,1.46-.92,3.31-2.09,4.32-4.8,1.14-3.05.46-6.07.22-7.01"/><path class="cls-5" d="m104.18,134.73c.88.03,2.3-.07,3.78-.89.84-.47,1.92-1.06,2.51-2.42.67-1.53.29-3.04.16-3.51"/><path class="cls-5" d="m307,147.97c1.08-.44,2.72-1.37,3.91-3.37.68-1.14,1.55-2.59,1.3-4.88-.28-2.58-1.8-4.55-2.29-5.15"/><path class="cls-5" d="m306.18,144.73c.61-.26,1.56-.8,2.29-1.87.42-.61.95-1.39.88-2.57-.07-1.33-.86-2.3-1.11-2.59"/><path class="cls-5" d="m133.89,61.83c-.9-.11-2.37-.1-3.94.82-.89.52-2.03,1.19-2.73,2.85-.79,1.88-.5,3.81-.39,4.41"/><path class="cls-5" d="m133.22,64.37c-.52-.05-1.36-.05-2.27.41-.51.26-1.17.59-1.57,1.43-.45.94-.29,1.9-.22,2.2"/><rect class="cls-13" x="44.12" y="37.35" width="31.22" height="92.23" transform="translate(-41.31 65.42) rotate(-44.29)"/><ellipse class="cls-13" cx="27.53" cy="50.46" rx="15.61" ry="12.11" transform="translate(-27.41 33.56) rotate(-44.29)"/><ellipse class="cls-13" cx="92.51" cy="117.07" rx="15.61" ry="12.11" transform="translate(-55.46 97.86) rotate(-44.29)"/><circle class="cls-7" cx="24.81" cy="70.03" r="9.04"/><circle class="cls-7" cx="72.88" cy="119.3" r="9.04" transform="translate(-62.59 84.79) rotate(-44.29)"/><ellipse class="cls-15" cx="78.73" cy="92.44" rx=".7" ry="1.12" transform="translate(-42.17 81.24) rotate(-44.29)"/><ellipse class="cls-15" cx="73.26" cy="97.77" rx=".7" ry="1.12" transform="translate(-47.45 78.94) rotate(-44.29)"/><ellipse class="cls-15" cx="78.94" cy="103.59" rx=".7" ry="1.12" transform="translate(-49.9 84.56) rotate(-44.29)"/><ellipse class="cls-15" cx="84.41" cy="98.26" rx=".7" ry="1.12" transform="translate(-44.62 86.86) rotate(-44.29)"/><ellipse class="cls-15" cx="35.21" cy="58.75" rx=".7" ry="1.12" transform="translate(-31.02 41.28) rotate(-44.29)"/><ellipse class="cls-15" cx="41.31" cy="65.01" rx=".7" ry="1.12" transform="translate(-33.65 47.31) rotate(-44.29)"/><ellipse class="cls-15" cx="46.3" cy="60.14" rx=".7" ry="1.12" transform="translate(-28.84 49.42) rotate(-44.29)"/><ellipse class="cls-15" cx="39.99" cy="53.67" rx=".7" ry="1.12" transform="translate(-26.11 43.17) rotate(-44.29)"/></svg>