<?xml version="1.0" encoding="UTF-8"?><svg id="Layer_1" xmlns="http://www.w3.org/2000/svg" width="62.85mm" height="110.42mm" viewBox="0 0 178.16 312.99"><defs><style>.cls-1,.cls-2,.cls-3{fill:none;}.cls-1,.cls-4,.cls-5,.cls-6,.cls-7,.cls-8,.cls-9,.cls-10,.cls-11,.cls-12,.cls-13{stroke-width:0px;}.cls-14,.cls-2,.cls-3{stroke-miterlimit:10;}.cls-14,.cls-3{stroke:#280a00;}.cls-14,.cls-5{fill:#280a00;}.cls-2{stroke:#936b4e;}.cls-4{fill:#f6df56;}.cls-6{fill:#27368d;}.cls-7{fill:#a42d2e;}.cls-8{fill:#393a35;}.cls-9{fill:#213392;}.cls-10{fill:#e2613d;}.cls-11{fill:#b38f6c;}.cls-12{fill:#b54e35;}.cls-13{fill:#fff;}</style></defs><rect class="cls-10" x="18.4" y="260.54" width="140.09" height="35.32"/><ellipse class="cls-10" cx="18.4" cy="278.2" rx="18.4" ry="17.66"/><ellipse class="cls-10" cx="159.76" cy="278.2" rx="18.4" ry="17.66"/><ellipse class="cls-5" cx="36.8" cy="295.86" rx="13.73" ry="10.23"/><ellipse class="cls-5" cx="141.35" cy="295.86" rx="13.73" ry="10.23"/><ellipse class="cls-12" cx="118.35" cy="269.9" rx="1.7" ry=".79"/><ellipse class="cls-12" cx="118.35" cy="278.54" rx="1.7" ry=".79"/><ellipse class="cls-12" cx="130.71" cy="278.54" rx="1.7" ry=".79"/><ellipse class="cls-12" cx="130.7" cy="269.9" rx="1.7" ry=".79"/><ellipse class="cls-12" cx="35.56" cy="278.54" rx="1.7" ry=".79"/><ellipse class="cls-12" cx="48.84" cy="278.54" rx="1.7" ry=".79"/><ellipse class="cls-12" cx="48.84" cy="270.65" rx="1.7" ry=".79"/><ellipse class="cls-12" cx="35.11" cy="270.65" rx="1.7" ry=".79"/><path class="cls-11" d="m50.93,62.07c.09.68.06,1.18.06,1.4-.03,1.23.36,9.84,3.2,19.16,1.83,5.99,2.87,9.43,5.81,13.47,1.08,1.49,5.11,6.75,12.48,10.35,4.9,2.4,9.09,2.98,12.34,3.4,8.37,1.09,15.08-.3,18.29-1.13,4.94-1.29,12.9-3.36,16.87-8.93,1.94-2.72,3.69-6.24,3.69-6.24,1.72-3.47,1.12-3.32,2.41-5.39.92-1.49,1.84-2.55,1.56-3.83-.23-1.03-.98-1.04-1.28-1.84-.81-2.2,4.01-4.39,6.52-9.78.55-1.18,1.67-3.66,1.28-6.81-.14-1.13-.49-3.9-2.84-5.81-.32-.26-3.06-2.44-5.67-1.56-2.67.9-2.59,4.1-4.4,4.25-1.02.09-1.82-.86-6.24-7.09-1.84-2.6-2.76-3.9-2.84-4.11-1.7-5.03,2.63-9.24.43-12.05-.08-.1-.86-1.07-2.13-1.28-3.07-.49-4.62,4.3-8.93,7.51-4.46,3.34-9.71,3.37-16.59,3.4-3.4.02-7.28.04-12.05-1.42-5.05-1.54-10.24-2.63-15.31-4.11-.39-.11-1.76-.51-2.13,0-.4.55.71,1.66,1.56,3.54.46,1.01,1.5,3.32.99,5.81-.4,1.98-1.82,4.26-3.97,5.25-1.74.8-3.42.51-3.69,1.42-.16.54.36.91.57,2.41Z"/><path class="cls-4" d="m44.73,21.56c1.58-4.69,2.87-2.53,4.94-4.24s2.62-.34,4.58-1c1.46-.49,3.4-.12,4.85-.27,1.45-.16,3.49-.07,4.61-.25,2.74-.45,4.54-1.05,6.88-2.18,1.49-.72,2.94-1.84,3.97-3.05.81-.97,1.14-2.05,2.19-2.6s1.78-.22,2.89-.32c2.08-.19,3.5-1.11,5.51-1.89,2.64-1.02,4.88-1.7,8.03-2.16,1.79-.26,5.37-.72,7.41-.11,5.58,1.66,10.41,8.36,15.92,8.67,1.8.1.81-2.69,1.91-3.72.6-.56,1.8-2.86,3.15-2.8,1.34.06,2.16.29,3.14,1.18.98.89,1.48,1.73,1.64,3.14.08.7-.61,1.53-.67,2.36-.06.83-1.26,2.21-.1,2.97,2,1.3,4.21-.19,6.88-.11,1.41.04,4.02-.13,5.7,1.28,1.68,1.41,3.41,3.21,3.1,6.1-.04.38-.81,2.4-1.6,2.85-1.15.66-4.34-1.21-4.83.45-.49,1.66,2.06,2.45,3.29,4.15,2.07,2.87,3.84,5.63,5.24,9.87,1.58,4.77,2.25,13.29,2.48,18.33.15,3.19.27,6.83-.26,8.87-1.27,4.95-4.52,8.28-7.24,11.23-3.79,4.11-8.96,10.75-14.39,11.01-.7.03-.57-.81-1.2-1.65-.36-.48-2.03-1.19-1.89-3.07.06-.75.4-3.73,2.13-5.35s5.21-3.82,7.38-6.72c.74-.99,2.8-5.19.69-7.44-.09-.09-1.52-3.33-3.35-2.58-1.83.76-2.65,3.78-5.26,4.21-2.61.43-4.8-1.85-6.98-4.07-1.09-1.11-3.32-4.69-4.05-6.45-1.09-2.62,1.08-8.46-2.1-9.58-3.18-1.13-4.76,3.8-7.99,5.24-4.31,1.92-9.22,3.43-14.87,2.98-7.97-.63-16.7-2.84-24.13-6.68-1.25-.65-3.74-3.3-5.05-1.89-.59.63.03,1.85.13,2.07,1.14,2.6,3.24,5.25,3.26,8.03.18,4.82-3.73,5.99-7.88,6.23-.04,0-.1.13-.36-.12-10.67-10.18-11.87-28.45-7.67-40.93Z"/><circle class="cls-13" cx="66.81" cy="68.58" r="1.89"/><circle class="cls-13" cx="97.08" cy="72.35" r="1.89"/><path class="cls-11" d="m82.94,108.16c-.18.05-2.5.78-3.42,3.05-.07.16-.25.61-.29,1.06-.28,2.59,3.68,5.53,6.82,6.82.9.37,5.08,1.98,9.83.3,2.07-.73,5.24-1.85,5.92-4.72.7-2.95-1.57-6.35-4.01-7.02-.61-.17-1.31-.11-2.71,0-2.63.21-2.71.7-4.52.8-2.26.12-2.73-.62-5.82-.5-.88.03-1.32.05-1.81.2Z"/><ellipse class="cls-5" cx="98.98" cy="75.45" rx="5.58" ry="6.75"/><ellipse class="cls-14" cx="69.19" cy="71.98" rx="5.36" ry="6.43"/><path class="cls-8" d="m90.57,61.79c.01-.56,1.4-.94,3.36-1.47,2.24-.61,5.82-1.58,9.44.21,1.7.84,4.36,2.76,3.99,3.78-.84,2.29-16.82-.61-16.78-2.52Z"/><path class="cls-8" d="m62.04,60.95c-.01-2.51,4.78-5.35,8.6-4.41,2.75.68,4.79,3.28,4.41,3.99-.32.58-2.03-.67-4.61-.21-3.49.63-4.55,3.67-6.5,3.15-1.05-.28-1.88-1.48-1.89-2.52Z"/><path class="cls-11" d="m81.39,116.75c-.1-.09-.21-.17-.31-.26"/><path class="cls-13" d="m101.62,110.87c.51-.33,1.8.54,2.26,1.2.45.66.36,2.27.22,2.87-.33,1.41-1.27,2.83-1.98,3.5-1.4,1.32-1.94,1.44-3.57,2.24-1.02.5-2.58,1.17-3.91,1.4-2.09.36-3.89.62-6.16.28-2.26-.34-4.07-.98-6.43-2.42-.96-.58-3.03-2.09-3.94-3.62-.46-.77-1.4-2.02-1.18-3.47.07-.45.3-2.26,1.33-2.58.04-.01.88-.5,1.17-.08.29.42-.06,1.53-.19,2.12-.08.36-.38.81-.27,1.4.11.59.72,1.24,1.32,1.79.6.55.69.84,1.61,1.64.92.79,2.82,1.78,4.32,2.28,1.5.5,3.28.92,4.94.93,1.66,0,3.75-.64,5.11-1.09,1.36-.45,2.82-1.3,3.53-1.87,1-.79,1.12-1.19,1.61-1.89.49-.69.59-1.46.64-2.04.05-.58-.41-1.63-.38-1.78.07-.53-.56-.5-.05-.83Z"/><path class="cls-7" d="m46.65,122.92c-.69.34-1.35.45-1.69,1.39-.72,1.98.35,4.33.79,6.26,1.1,4.75.96,9,3.87,13.12.31.44,1.04.79,1.88.71,1.28-.12,2.96-1.32,3.91-2.27.96-.95,2.87-2.53,3.7-3.03,2.03-1.21,3.14-1.41,5.09-2.38.27-.13.72-.82,1.25-.09.52.73.68,1.45.73,2.62.12,2.73-.22,3.35-.12,6.77.14,5.13.84,9.42,2.99,15.85.81,2.42,3.92,11.02,5.68,14.53,2.12,4.24,2.8,10.55,7.46,12.72s8.36-.28,12.96-1.57c7.85-2.22,13.91-4.21,22.85-7.36.49-.17,10.54-4.9,12.59-6.46.13-.1,2.73-1.3,2.14-2.42-.59-1.13-1.49-2.13-2.28-3.27-3.17-4.54-3.39-9.6-4.51-14.99-.89-4.29-2.97-10.22-5.11-13.61-1.8-2.84-2.8-5.34-3.75-7.46-.57-1.29-1.06-2.42-.46-2.64,6.13-2.27,11.72.02,17.7,1.27,1.3.27,2.12.1,3.16-.35,1.04-.45,1.15-2.51,1.16-3.12.05-4.56-.32-10.04-.38-14.02-.04-2.61.77-4.08-.62-5.64-1.86-2.1-3.4-.61-5.63-.25-5.83.94-11.92,1.56-17.85,1.63-4.18.05-8.84-.85-12.15,1.84-.88.71,1.61.21,1.8,1.19.26,1.3.72,2.71.13,4.44-.59,1.73-4.49,4.04-5.71,4.65-3.11,1.55-6.91,2.53-9.49,2.18-3.69-.51-5.35-1.37-8.13-2.85-2.4-1.28-2.84-3.7-3.76-5.79s5.46-4.6,1.85-4.55c-7.19.11-14.66,5.9-21.28,8.92-3.76,1.72-7.12,2.28-10.73,4.03"/><path class="cls-9" d="m82.79,186.24c1.64-1.89,10.76-.76,11.46-.74,8.16.2,10.95-1.69,18.57-3.64,6.12-1.56,13.02-5.18,19.27-9.86.59-.44,2.65,2.68,2.86,3.79.52,2.76,1.42,10.72,1.32,11.8-.37,3.9-1.85,6.35-2.88,8.11-2.14,3.65-5.64,5.9-7.91,8.02-4.9,4.56-9.39,9.17-13.86,12.94-1.59,1.34-4.83,3.57-5.15,3.81-1.87,1.38-6.51,4.46-7.06,4.77-3.02,1.72-11.56,7.08-12.29,7.55-4.71,2.99-5.22,6.24-10.17,5.91-1.95-.13-4.09-3.8-5.69-6.15-1.98-2.89-4.23-6.98-6.87-10.6-1.59-2.17-4.35-6.36-6.02-9.23-.11-.19-.61-1.2-.51-1.81.18-1.1,1.5-2.18,2.24-2.7,3.28-2.27,4.37-3.92,7.82-7.04.27-.24,4.28-4.1,5.87-5.71.79-.8,4.45-4.27,5.74-5.84.19-.24,1.37-1.47,1.86-2.04.16-.19.97-.81,1.44-1.35Z"/><path class="cls-6" d="m102.9,221.37c-.25.63.6,1.4,1.38,2.35.65.79,1.41,2.34,2.92,5.45,1.73,3.54,1.7,4.28,2.75,4.87.91.51,1.95.55,4.01.11,1.03-.22,1.83-.41,2.51-.65,1.93-.67,3.59-1.25,5.98-2.62,4.73-2.71,3.97-3.84,8.94-6.76,2.24-1.32,4.3-2.96,6.59-4.18.82-.44,1.2-.61,1.49-1.09.73-1.2-.09-2.65-3.73-9.23-1.51-2.74-3.75-5.11-4.87-8.03-.24-.62-.65-1.77-1.43-1.89-.65-.1-.96.99-2.81,2.87-.33.34-.61.59-1.17,1.1-1.16,1.06-2,1.73-3.03,2.56-1.78,1.45-1.25,1.05-3.41,2.81-2.91,2.37-2.89,2.28-3.68,3.01-1.52,1.42-1.48,1.64-2.94,2.9-.52.45-1.25,1-2.72,2.12-1.51,1.15-2.17,1.61-2.45,1.8-1.2.83-1.81,1.25-2.36,1.51-1.25.59-1.81.54-1.98,1Z"/><path class="cls-11" d="m60.42,215.81c-1.53-.56-3.19,1.14-9.08,6.6-3.88,3.6-4.45,4.06-4.95,5.37-.57,1.48-.56,2.73.41,8.25,1.3,7.36,1.94,11.04,2.48,12.38,1.01,2.54,2.59,5.48,1.65,7.84-.13.33-.47,1.04-.2,1.76.1.27.43.95,2.91,1.76,1.15.38,1.44.35,4.67,1.01,1.53.32,1.83.4,2.57.47.24.02.64.06,2.98.07,2.75,0,2.79-.04,3.32.07,1.05.21,1.41.49,1.89.27.75-.33.91-1.46,1.01-2.23.2-1.41-.03-2.3-.2-3.59-.22-1.66.02-1.19-.2-5.07-.13-2.19-.19-3.29-.34-4.2-.68-4.13-.74-4.4-.74-4.4-.18-.81-.28-1.12-.14-1.56.28-.81,1.11-1.11,3.25-2.03,2.88-1.24,3.24-1.5,3.32-1.89.13-.66-.64-1.1-1.96-2.5-.98-1.04-1.78-2.23-3.38-4.6-.96-1.42-.76-1.26-2.57-4.06-1.5-2.32-1.42-2.11-2.17-3.32-1.23-2.01-1.43-2.58-2.44-3.99-1.07-1.5-1.61-2.25-2.08-2.42Z"/><path class="cls-11" d="m134.17,221.86c-.22.11-.64.15-.96.36-.33.2-.6.46-.94.81-1.44,1.48-2.59,2.19-4.42,3.72-.74.62-2.7,2.07-3.89,2.92-1.19.85-3.47,2.5-4.61,3.22-1.14.73-1.44.87-2.44,1.43.22.27.68.82.89,1.03.54.53,1.95,1.59,2.27,1.83,1.8,1.36,2.26,1.62,4.09,3.12,1.33,1.08,4.35,3.01,6.15,3.91,2.2,1.1,6.09,2.32,7.97,2.63,3.83.64,8.97-.87,11.64-1.34,3.09-.55,7.58.29,8.85-2.36s-1.43-5.17-2.32-8.34c-.36-1.29-1.91-6.2-1.38-4.79-.17-.94-.52-2.32-1.42-2.43-3.32-.43-5.88,2.7-9.11,3.1-1.39.17-2.21-.77-3.21-1.83-1.29-1.36-1.48-3.54-2.44-5.53-.08-.16-1.64-2.16-2.09-2.58-.03-.03-.19-.32-.42-.3-.69.07-1.44,1.07-2.19,1.43Z"/><path class="cls-5" d="m68.99,262.13c.19.17.36.54.03,2.13-.1.5-.15.75-.27,1.13-.42,1.32-.31,2.41-.35,4.07-.06,2.4-.09,3.6-.47,4.42-.92,2.03-3.34,2.8-4.89,3.26-2.69.81-4.92.67-10.35-.12-3.74-.54-4.18-.7-11.05-1.86-3.39-.57-6.71-1.54-10.12-1.98-2.97-.38-4.59-.42-5.58-1.74-1.15-1.55-.89-4.08.23-5.7,1.05-1.52,2.68-1.96,4.89-2.56.79-.21,2.49-.61,4.89-.58,3.43.04,4.16.9,7.68.81,2.06-.05,3.46-.11,4.07-1.05.36-.55,1-2.26,1.28-3.49.03-.13.09-.42.33-.55.46-.27,1.23.25,1.63.5.26.17,1.38.61,3.61,1.48,1.81.71,3.32.9,4.43,1.04.7.09,1.13.11,4.4.17,0,0,1.67-.08,3.69.06.06,0,.19.01.37.04.57.08.99.25,1.19.33.22.09.33.14.37.18Z"/><path class="cls-14" d="m153.26,227.67c.41-.19.47-.27,2.83-2.15,6.78-5.42,3.64-2.75,4.41-3.39.7-.59,1.1-.95,1.81-1.13,1.47-.36,2.77.45,2.94.57.67.43,1.11,1.02,1.92,2.83.84,1.86,1.29,3.28,1.81,4.86.76,2.31,1.14,3.46,1.58,4.63.95,2.51,1.22,2.77,2.03,5.09.69,1.96.52,1.85,1.13,3.5,1,2.7,1.38,2.83,1.92,4.75.62,2.23.53,3.58.45,4.18-.13,1.1-.25,2.1-1.02,2.71-.97.78-2.36.46-3.84.11-1.36-.32-2.97-.69-4.18-2.03-.7-.78-1.07-1.95-1.81-4.29-.68-2.15-.74-3.05-1.7-3.96-.24-.23-.9-.85-1.92-1.13-1.04-.28-1.43.07-2.03-.23-.83-.41-.84-1.43-1.36-3.28-.19-.67-.73-1.95-1.81-4.52-1.31-3.12-1.65-3.48-1.92-3.73-1.98-1.78-2.26-1.92-2.26-1.92-.21-.1-.53-.24-.55-.47-.02-.38.85-.67,1.56-1Z"/><circle class="cls-13" cx="66.81" cy="68.21" r="1.89"/><circle class="cls-13" cx="96.72" cy="71.6" r="1.89"/><path class="cls-3" d="m75.03,93.74s20.78,28.38,19.19-4.4l-19.19,4.4Z"/><polyline class="cls-3" points="94.29 93.49 92.01 94.01 89.49 94.59 86.36 95.3 83.71 95.91 80.22 96.71 77.88 97.24"/><polygon class="cls-3" points="82.8 101.16 93.54 98.59 92.88 101.88 91.96 103.38 90.85 104.3 89.56 104.74 87.36 104.44 85.53 103.62 84.1 102.7 82.8 101.7 82.25 101.24 82.8 101.16"/><line class="cls-3" x1="94.04" y1="93.65" x2="94.4" y2="93.65"/><path class="cls-14" d="m78.81,97.73c0-.19,1.42-.3,2.7-.49,1.68-.25,1.5-.39,4.7-1.09,3.27-.72,2.96-.46,3.79-.79.96-.39,2.04-.4,3-.77.11-.04.39-.15.56-.02.28.2-.03.78-.07,1.96-.03.83.1,1.07-.12,1.35-.28.36-.81.35-1.26.37-1.26.07-.98.39-3.35.93-2.09.47-1.92.13-3.19.56-.25.08-1.16.4-2.4.68-.73.16-.97.18-1.23.07-.46-.19-.44-.52-1.3-1.49-.55-.62-.83-.79-.95-.86-.51-.29-.88-.3-.88-.4Z"/><polygon class="cls-13" points="75.85 94.03 78.46 93.49 81.14 92.86 83.96 92.17 86.68 91.58 88.75 91.1 91.2 90.56 92.83 90.18 93.69 89.99 93.77 90.96 93.77 91.75 93.77 93.03 92.66 93.32 89.76 94.03 87 94.66 84.13 95.26 81.24 95.95 79.2 96.41 78.02 96.69 77.18 95.63 76.23 94.5 75.85 94.03"/><polygon class="cls-13" points="83.38 101.52 86.13 100.89 88.84 100.21 91.1 99.69 92.88 99.26 92.75 99.99 92.46 101.52 92.14 102.33 91.57 103.16 90.94 103.71 90.36 104.04 89.48 104.31 88.13 104.24 87.41 103.98 85.53 103.08 84.18 102.21 83.38 101.52"/><path class="cls-2" d="m83.24,74.2c.64,1.65.38,2.69.17,3.22-.55,1.37-2.09,2.37-3.39,3.22-1.05.68-1.46.79-1.7,1.36-.43,1.05.31,2.37.93,3.05.92,1.01,2.11,1.22,2.54,1.27,1.5.18,2.66-.54,3.31-.93.53-.33.92-.67,1.19-.93"/><ellipse class="cls-11" cx="18.02" cy="119.9" rx="6.36" ry="8.89" transform="translate(-64.55 31.11) rotate(-34.37)"/><rect class="cls-11" x="14.9" y="109.16" width="4.49" height="4.71" transform="translate(44.34 221.02) rotate(174.79)"/><path class="cls-1" d="m13.07,108.6c1.36,2.52,3.63,3.84,5.08,2.96"/><path class="cls-1" d="m17.61,108.9c-.29-.95-1.27-1.49-2.19-1.21"/><path class="cls-1" d="m14.3,109.93c-.29-.95.21-1.95,1.12-2.23"/><path class="cls-1" d="m15.42,107.7c.29.95-.21,1.95-1.12,2.23"/><path class="cls-1" d="m17.61,108.9l-3.31,1.02"/><ellipse class="cls-11" cx="16.91" cy="108.96" rx="2.3" ry="1.35" transform="translate(-9.79 1.98) rotate(-5.19)"/><polyline class="cls-11" points="48.43 141.68 41.93 146.64 40.33 147.21 37.6 148.19 33.85 148.19 31.51 146.52 26.9 141.17 23.6 137.87 19.16 132.19 18.02 128.54 18.02 127.36 25.34 122.52 29.31 125.57 37.35 132.19 45 127.77"/><path class="cls-1" d="m10.78,108.74c1.52,2.42,3.87,3.58,5.26,2.6"/><path class="cls-1" d="m10.34,117.25c-.59-.62-.59-1.58.01-2.15"/><path class="cls-1" d="m11.35,106.16c.49.86.24,1.97-.56,2.48"/><path class="cls-1" d="m6.13,90.88c-.62-.59-.66-1.56-.08-2.15"/><path class="cls-1" d="m9.47,116.27c-.84-.53-1.92-.29-2.42.53"/><path class="cls-1" d="m6.42,100.91c-.85-.11-1.62.47-1.73,1.29"/><path class="cls-1" d="m8.98,123.72c-.78-.09-1.34-.74-1.25-1.46"/><path class="cls-1" d="m22.4,112.99c-.97,2.28-.66,4.6.7,5.18"/><path class="cls-1" d="m16.65,116.36c-.14-.85.4-1.64,1.21-1.78"/><rect class="cls-11" x="20.84" y="114.05" width="3.87" height="4.07" transform="translate(-19.85 226.43) rotate(-147.78)"/><path class="cls-1" d="m21.67,113.5c-.86,2.33-.44,4.63.95,5.14"/><path class="cls-1" d="m24.47,114.54c.3-.8-.09-1.69-.86-1.97"/><path class="cls-1" d="m21.67,113.5c.3-.8,1.16-1.22,1.94-.94"/><path class="cls-1" d="m23.61,112.56c-.3.8-1.16,1.22-1.94.94"/><path class="cls-1" d="m24.47,114.54l-2.8-1.04"/><path class="cls-1" d="m24.2,113.13c.3-.8,1.16-1.22,1.94-.94"/><ellipse class="cls-11" cx="23.96" cy="114.2" rx="1.17" ry="1.99" transform="translate(-85.43 73.58) rotate(-57.78)"/><polygon class="cls-11" points="8.83 112.29 11.99 109.08 15.13 112.48 11.97 115.69 8.83 112.29"/><path class="cls-1" d="m7.97,115.75c2.31.91,4.62.53,5.15-.84"/><path class="cls-1" d="m10.77,110.03c-.79-.55-1.86-.35-2.39.47"/><path class="cls-1" d="m8.87,112.97c-.79-.55-1.01-1.66-.48-2.47"/><path class="cls-1" d="m8.38,110.5c.79.55,1.01,1.66.48,2.47"/><path class="cls-1" d="m10.77,110.03l-1.9,2.94"/><path class="cls-1" d="m9.16,109.98c-.79-.55-1.01-1.66-.48-2.47"/><ellipse class="cls-11" cx="10.27" cy="110.53" rx="2.31" ry="1.33" transform="translate(-77.4 42.44) rotate(-46.86)"/><polygon class="cls-11" points="9.97 124.45 9.17 121.17 12.82 120.37 13.63 123.65 9.97 124.45"/><path class="cls-1" d="m11.59,126.61c2.25-1.05,3.56-2.98,2.94-4.32"/><path class="cls-1" d="m9.29,122.33c-.72.32-1.04,1.1-.71,1.75"/><path class="cls-1" d="m11.59,126.61c-.78.36-1.69.05-2.04-.7"/><path class="cls-1" d="m9.55,125.91c.78-.36,1.69-.05,2.04.7"/><path class="cls-1" d="m9.29,122.33l1.17,2.36"/><path class="cls-1" d="m9.53,125.09c-.78.36-1.69.05-2.04-.7"/><ellipse class="cls-11" cx="9.4" cy="122.84" rx="1.07" ry="1.73" transform="translate(-30.89 6.42) rotate(-14.71)"/><polygon class="cls-11" points="6.85 118.3 8.45 114.06 12.82 115.77 11.22 120.02 6.85 118.3"/><path class="cls-1" d="m8.35,120.88c2.45.39,4.62-.47,4.85-1.93"/><path class="cls-1" d="m7.72,115.44c-.97-.16-1.88.49-2.03,1.45"/><path class="cls-1" d="m8.35,120.88c-.85-.13-1.43-.9-1.3-1.72"/><path class="cls-1" d="m7.06,119.16c.85.13,1.43.9,1.3,1.72"/><path class="cls-1" d="m7.72,115.44l-.54,3.47"/><path class="cls-1" d="m6.19,116.08c-.97-.16-1.64-1.06-1.49-2.02"/><ellipse class="cls-11" cx="7.45" cy="116.1" rx="2.33" ry="1.35" transform="translate(-104.07 82.99) rotate(-69.79)"/><ellipse class="cls-11" cx="163.5" cy="138.96" rx="6.36" ry="8.89" transform="translate(-41.44 75.38) rotate(-23.13)"/><rect class="cls-11" x="160.47" y="145" width="4.49" height="4.71" transform="translate(16.4 -16.3) rotate(6.04)"/><path class="cls-1" d="m166.14,151.02c-.85-2.73-2.81-4.47-4.4-3.89"/><path class="cls-1" d="m161.75,149.83c.1.99.96,1.71,1.91,1.61"/><path class="cls-1" d="m165.2,149.47c.1.99-.58,1.87-1.54,1.97"/><path class="cls-1" d="m163.66,151.44c-.1-.99.58-1.87,1.54-1.97"/><path class="cls-1" d="m161.75,149.83l3.45-.36"/><ellipse class="cls-11" cx="162.45" cy="149.92" rx="1.35" ry="2.3" transform="translate(-3.77 295.64) rotate(-83.94)"/><polyline class="cls-11" points="137.91 111.67 145.26 108.08 146.93 107.83 149.8 107.4 153.49 108.14 155.46 110.22 158.93 116.37 161.53 120.25 164.77 126.69 165.18 130.5 164.95 131.65 156.83 134.96 153.52 131.2 146.93 123.14 138.57 125.98"/><path class="cls-1" d="m168.42,151.32c-1.02-2.66-3.09-4.26-4.65-3.58"/><path class="cls-1" d="m170.51,143.06c.46.72.27,1.67-.43,2.11"/><path class="cls-1" d="m167.35,153.74c-.31-.94.15-1.98,1.04-2.32"/><path class="cls-1" d="m171.17,144.19c.72.68,1.83.66,2.48-.05"/><path class="cls-1" d="m173.11,136.99c.75.24,1.17.99.94,1.67"/><path class="cls-1" d="m157.85,144.89c1.4-2.05,1.54-4.38.32-5.21"/><path class="cls-1" d="m164.14,142.71c-.02.86-.71,1.53-1.54,1.51"/><rect class="cls-11" x="156.14" y="139.75" width="3.87" height="4.07" transform="translate(140.91 -69.87) rotate(43.47)"/><path class="cls-1" d="m158.67,144.53c1.3-2.12,1.33-4.45.07-5.22"/><path class="cls-1" d="m156.12,142.97c-.45.73-.24,1.67.46,2.1"/><path class="cls-1" d="m158.67,144.53c-.45.73-1.38.97-2.09.54"/><path class="cls-1" d="m156.58,145.07c.45-.73,1.38-.97,2.09-.54"/><path class="cls-1" d="m156.12,142.97l2.55,1.56"/><path class="cls-1" d="m156.11,144.4c-.45.73-1.38.97-2.09.54"/><ellipse class="cls-11" cx="156.55" cy="143.39" rx="1.17" ry="1.99" transform="translate(-55.22 158.35) rotate(-46.53)"/><polygon class="cls-11" points="171.02 148.22 167.3 150.76 164.88 146.81 168.6 144.28 171.02 148.22"/><path class="cls-1" d="m172.55,144.99c-2.09-1.34-4.42-1.42-5.22-.18"/><path class="cls-1" d="m168.68,150.06c.67.7,1.76.7,2.43,0"/><path class="cls-1" d="m171.12,147.54c.67.7.66,1.83,0,2.52"/><path class="cls-1" d="m171.11,150.06c-.67-.7-.66-1.83,0-2.52"/><path class="cls-1" d="m168.68,150.06l2.44-2.51"/><path class="cls-1" d="m170.25,150.43c.67.7.66,1.83-.01,2.52"/><ellipse class="cls-11" cx="169.27" cy="149.67" rx="2.31" ry="1.33" transform="translate(-55.5 126.56) rotate(-35.61)"/><polygon class="cls-11" points="172.27 136.07 172.42 139.45 168.69 139.52 168.54 136.15 172.27 136.07"/><path class="cls-1" d="m171.11,133.64c-2.41.59-4.08,2.23-3.73,3.66"/><path class="cls-1" d="m172.53,138.29c.76-.17,1.23-.87,1.04-1.58"/><path class="cls-1" d="m171.11,133.64c.83-.2,1.67.28,1.86,1.08"/><path class="cls-1" d="m172.97,134.72c-.83.2-1.67-.28-1.86-1.08"/><path class="cls-1" d="m172.53,138.29l-.68-2.54"/><path class="cls-1" d="m172.84,135.53c.83-.2,1.67.28,1.86,1.08"/><ellipse class="cls-11" cx="172.52" cy="137.76" rx="1.07" ry="1.73" transform="translate(-8.01 10.67) rotate(-3.46)"/><polygon class="cls-11" points="174.13 142.71 171.74 146.56 167.79 144.03 170.18 140.18 174.13 142.71"/><path class="cls-1" d="m173.17,139.89c-2.33-.86-4.63-.44-5.14.94"/><path class="cls-1" d="m172.73,145.35c.92.35,1.94-.11,2.28-1.02"/><path class="cls-1" d="m173.17,139.89c.8.3,1.22,1.17.94,1.94"/><path class="cls-1" d="m174.1,141.83c-.8-.3-1.22-1.17-.94-1.94"/><path class="cls-1" d="m172.73,145.35l1.21-3.29"/><path class="cls-1" d="m174.35,145.02c.92.35,1.4,1.36,1.07,2.27"/><ellipse class="cls-11" cx="173.12" cy="144.75" rx="2.33" ry="1.35" transform="translate(-40.71 216.88) rotate(-58.54)"/></svg>